<svg width="104" height="75" viewBox="0 0 104 75" fill="none" xmlns="http://www.w3.org/2000/svg">
<path d="M0.0458984 5C0.0458984 2.23858 2.28447 0 5.0459 0H42.9456C44.5499 0 46.0568 0.769812 46.997 2.06972L53.8101 11.4894C56.2014 14.7956 53.8391 19.4196 49.7587 19.4196H5.0459C2.28447 19.4196 0.0458984 17.1811 0.0458984 14.4196V5Z" fill="#191FAC"/>
<rect x="0.0458984" y="10.0446" width="103.27" height="64.9554" rx="5" fill="#191FAC"/>
<path d="M2.4812e-05 15.3448C2.59605e-05 12.5834 2.2386 10.3448 5.00002 10.3448H99C101.761 10.3448 104 12.5834 104 15.3448V70C104 72.7614 101.761 75 99 75H5C2.23858 75 9.31077e-07 72.7614 2.07962e-06 70L2.4812e-05 15.3448Z" fill="#4146C3"/>
</svg>
